<svg xmlns="http://www.w3.org/2000/svg" width="22.002" height="19.133" viewBox="0 0 22.002 19.133"><defs><style>.a{opacity:0.4;}.b{fill:none;stroke:#a5aec7;stroke-linecap:round;stroke-linejoin:round;stroke-width:2px;}</style></defs><g class="a" transform="translate(0 0)"><g transform="translate(1 1)"><path class="b" d="M18.133,4.569h0a1.428,1.428,0,0,0-1.428-1.428H10.159A1.428,1.428,0,0,1,9.145,2.72l-1.3-1.3A1.428,1.428,0,0,0,6.832,1h-4.4A1.428,1.428,0,0,0,1,2.428V16.705a1.428,1.428,0,0,0,1.428,1.428H16.705" transform="translate(-1 -1)"/><path class="b" d="M21.19,10H6.913a.714.714,0,0,0-.714.585l-2,10.123H19.905l2-9.866A.714.714,0,0,0,21.19,10Z" transform="translate(-1.916 -3.575)"/></g></g></svg>