<svg xmlns="http://www.w3.org/2000/svg" width="22.009" height="22.414" viewBox="0 0 22.009 22.414"><defs><style>.a{opacity:0.4;}.b{fill:none;stroke:#a5aec7;stroke-linecap:round;stroke-linejoin:round;stroke-width:2px;}</style></defs><g class="a" transform="translate(0.004)"><g transform="translate(1 1)"><line class="b" y1="14.286" transform="translate(0 4.286)"/><line class="b" y2="12.143" transform="translate(10 7.143)"/><line class="b" y1="14.286" transform="translate(20 4.286)"/><path class="b" d="M18.007,8.6A18.644,18.644,0,0,1,27,7" transform="translate(-7 -2.714)"/><path class="b" d="M6,7.464A25.942,25.942,0,0,0,1,7" transform="translate(-1 -2.714)"/><path class="b" d="M15,28.429C15.714,27.714,19.471,27,25,27" transform="translate(-5 -8.429)"/><path class="b" d="M11,28.429C10.286,27.714,6.529,27,1,27" transform="translate(-1 -8.429)"/><path class="b" d="M8,16.714,13,21V4.571L8,1Z" transform="translate(-3 -1)"/></g></g></svg>